/* XPM */
static char * tedit_xpm[] = {
"23 16 102 2",
"  	c None",
". 	c #929292",
"+ 	c #747474",
"@ 	c #818181",
"# 	c #7C7C7C",
"$ 	c #7D7D7D",
"% 	c #777777",
"& 	c #7E7E7E",
"* 	c #878787",
"= 	c #888888",
"- 	c #7A7A7A",
"; 	c #858585",
"> 	c #7B7B7B",
", 	c #8A8A8A",
"' 	c #868686",
") 	c #787878",
"! 	c #727272",
"~ 	c #0B0B0B",
"{ 	c #000000",
"] 	c #030303",
"^ 	c #050505",
"/ 	c #0A0A0A",
"( 	c #040404",
"_ 	c #FFFFFF",
": 	c #F9F9F9",
"< 	c #FCFCFC",
"[ 	c #FDFDFD",
"} 	c #BEBEBE",
"| 	c #FFFDFF",
"1 	c #AA4747",
"2 	c #FDFBFF",
"3 	c #C2C2C2",
"4 	c #020003",
"5 	c #FFFAFF",
"6 	c #FCFDFF",
"7 	c #FFFEFF",
"8 	c #C5C5C5",
"9 	c #010103",
"0 	c #FBF9FE",
"a 	c #FAF5F9",
"b 	c #FEFDFE",
"c 	c #F6F4F4",
"d 	c #FAF8FD",
"e 	c #FAFAF9",
"f 	c #020307",
"g 	c #FBFBFC",
"h 	c #F6F5F5",
"i 	c #F2F5FF",
"j 	c #000103",
"k 	c #FBFCFE",
"l 	c #F0F6FF",
"m 	c #FBFEFF",
"n 	c #FBFFFF",
"o 	c #000201",
"p 	c #FCFFFF",
"q 	c #F5FBF9",
"r 	c #050503",
"s 	c #FEFFFB",
"t 	c #F8FAFD",
"u 	c #F8F8F8",
"v 	c #8D8D8D",
"w 	c #FDFEF9",
"x 	c #FCFEF9",
"y 	c #FDFDFB",
"z 	c #FCFEFD",
"A 	c #FBFDFA",
"B 	c #FBFEF1",
"C 	c #FEFFFF",
"D 	c #F9FAFE",
"E 	c #FCFFF6",
"F 	c #FEFFF4",
"G 	c #FCFFF2",
"H 	c #FFFFF3",
"I 	c #FEFFF5",
"J 	c #FFFFFB",
"K 	c #BCBCBC",
"L 	c #C2C2C0",
"M 	c #C3C0C7",
"N 	c #C2C1C6",
"O 	c #C2C0CB",
"P 	c #C2BFD0",
"Q 	c #C3C1CE",
"R 	c #BEBFBA",
"S 	c #C9CBC0",
"T 	c #BBBCB7",
"U 	c #BEBEBC",
"V 	c #B9B8B4",
"W 	c #C2C3BE",
"X 	c #B7B7B5",
"Y 	c #CACACA",
"Z 	c #B5B5B5",
"` 	c #BBBBBB",
" .	c #FAFAFC",
"..	c #FDFAFF",
"+.	c #FDFCFA",
"@.	c #FDFBFC",
"#.	c #FDF9FF",
"$.	c #FCF8FF",
"%.	c #FEFDF9",
"&.	c #F8F8F0",
"*.	c #FFFEFC",
"=.	c #FAF7FE",
". + @ @ @ @ @ @ @ @ # # $ % & * = - ; > , ' ) ",
"! ~ { { { { { { { { ] ^ { / { { { ] { ( { { _ ",
"@ { _ _ _ _ _ _ _ _ _ : _ < _ < _ [ < _ _ } _ ",
"@ { | _ 1 _ _ 1 1 1 2 1 1 1 _ 1 1 1 _ _ [ 3 _ ",
"& 4 5 1 1 _ _ 1 _ 1 _ 1 6 1 _ 1 7 1 7 _ _ 8 _ ",
"& 9 | _ 1 _ _ 1 _ 1 _ 1 0 1 _ 1 a 1 _ _ _ 8 _ ",
"& 9 b _ 1 _ _ 1 _ 1 _ 1 c 1 _ 1 7 1 _ _ _ 8 _ ",
"& 9 d _ 1 _ _ 1 1 1 e 1 1 1 _ 1 1 1 _ _ _ 8 _ ",
"& f g _ 1 _ _ _ _ 1 h _ _ 1 _ _ i 1 _ _ _ 8 _ ",
"& j k _ 1 _ _ _ _ 1 _ _ _ 1 _ _ l 1 _ _ _ 8 _ ",
"& j m _ 1 _ _ _ _ 1 _ _ _ 1 _ _ n 1 _ _ _ 8 _ ",
"& o p _ 1 _ _ _ _ 1 _ _ _ 1 _ _ q 1 _ _ _ 8 _ ",
"+ r s 1 1 1 _ _ 1 1 t _ 1 1 _ _ 1 1 _ _ [ 8 u ",
"v { w x y z 6 A B _ C D s E F G H I J u _ K _ ",
", { L 3 M N L L N O P Q R S T U V W X Y Z ` _ ",
"#  .......2 +.@...#.$...%.&.*.7 | =._ _ _ _ [ "};
