/* XPM */
static char * tbutton_xpm[] = {
"23 23 6 1",
" 	c None",
".	c #FFFFFF",
"+	c #424242",
"@	c #D6D6CE",
"#	c #848484",
"$	c #474744",
"                       ",
"                       ",
"                       ",
"                       ",
"......................+",
".@@@@@@@@@@@@@@@@@@@@#+",
".@@@@@@@@@@@@@@@@@@@@#+",
".@@$$$$@$@@$@@@@$$$$@#+",
".@@$@@@@$@@$@@@@$@@@@#+",
".@@$@@@@$@@$@@@@$@@@@#+",
".@@$$$$@$@@$@@@@$$@@@#+",
".@@$@@@@$@@$@@@@$@@@@#+",
".@@$@@@@$@@$@@@@$@@@@#+",
".@@$@@@@$@@$$$$@$$$$@#+",
".@@@@@@@@@@@@@@@@@@@@#+",
".@@@@@@@@@@@@@@@@@@@@#+",
".#####################+",
"+++++++++++++++++++++++",
"                       ",
"                       ",
"                       ",
"                       ",
"                       "};
