/* XPM */
static char * tedit_xpm[] = {
"23 16 136 2",
"  	c None",
". 	c #929292",
"+ 	c #747474",
"@ 	c #818181",
"# 	c #7C7C7C",
"$ 	c #7D7D7D",
"% 	c #777777",
"& 	c #7E7E7E",
"* 	c #878787",
"= 	c #888888",
"- 	c #7A7A7A",
"; 	c #858585",
"> 	c #7B7B7B",
", 	c #8A8A8A",
"' 	c #868686",
") 	c #787878",
"! 	c #727272",
"~ 	c #0B0B0B",
"{ 	c #000000",
"] 	c #030303",
"^ 	c #050505",
"/ 	c #0A0A0A",
"( 	c #040404",
"_ 	c #FFFFFF",
": 	c #F9F9F9",
"< 	c #FCFCFC",
"[ 	c #FDFDFD",
"} 	c #BEBEBE",
"| 	c #FFFDFF",
"1 	c #AA4747",
"2 	c #FEFEFE",
"3 	c #FDFBFF",
"4 	c #FEFCFF",
"5 	c #FEFEFF",
"6 	c #C2C2C2",
"7 	c #020003",
"8 	c #FFFAFF",
"9 	c #FEFCFD",
"0 	c #FCFFFF",
"a 	c #FCFDFF",
"b 	c #FAFBF3",
"c 	c #FFFEFF",
"d 	c #C5C5C5",
"e 	c #010103",
"f 	c #FEFDFE",
"g 	c #FBFEFF",
"h 	c #FBF9FE",
"i 	c #FDFEFD",
"j 	c #FAF5F9",
"k 	c #FBFBFB",
"l 	c #F9FBFE",
"m 	c #F6F4F4",
"n 	c #F7F9FE",
"o 	c #FAF8FD",
"p 	c #FCFDFD",
"q 	c #F8FAFB",
"r 	c #F9FBFB",
"s 	c #FAFAF9",
"t 	c #F8F6F6",
"u 	c #F9F5FB",
"v 	c #F9FAFA",
"w 	c #020307",
"x 	c #FBFBFC",
"y 	c #FBFBFD",
"z 	c #FBFAFC",
"A 	c #F6F6FB",
"B 	c #F6F5F5",
"C 	c #F9FAFC",
"D 	c #F8F9F9",
"E 	c #F2F5FF",
"F 	c #FEFFFF",
"G 	c #000103",
"H 	c #FBFCFE",
"I 	c #F9FAFB",
"J 	c #F9FCFD",
"K 	c #F6F6F7",
"L 	c #F0F6FF",
"M 	c #FBFDFD",
"N 	c #FAFBFD",
"O 	c #F6F4F5",
"P 	c #FBFFFF",
"Q 	c #000201",
"R 	c #FAF9FB",
"S 	c #F5F3F5",
"T 	c #F8F7F7",
"U 	c #F7F8FE",
"V 	c #F5FBF9",
"W 	c #FEFFFD",
"X 	c #050503",
"Y 	c #FEFFFB",
"Z 	c #F8F9FE",
"` 	c #F8FAFD",
" .	c #F9FAFE",
"..	c #F8FAFE",
"+.	c #F8F8F8",
"@.	c #8D8D8D",
"#.	c #FDFEF9",
"$.	c #FCFEF9",
"%.	c #FDFDFB",
"&.	c #FCFEFD",
"*.	c #FBFDFA",
"=.	c #FBFEF1",
"-.	c #FCFFF4",
";.	c #FCFFF6",
">.	c #FEFFF4",
",.	c #FCFFF2",
"'.	c #FFFFF3",
").	c #FEFFF5",
"!.	c #FFFFFB",
"~.	c #BCBCBC",
"{.	c #C2C2C0",
"].	c #C3C0C7",
"^.	c #C2C1C6",
"/.	c #C2C0CB",
"(.	c #C2BFD0",
"_.	c #C3C1CE",
":.	c #BEBFBA",
"<.	c #C9CBC0",
"[.	c #BBBCB7",
"}.	c #BEBEBC",
"|.	c #B9B8B4",
"1.	c #C2C3BE",
"2.	c #B7B7B5",
"3.	c #CACACA",
"4.	c #B5B5B5",
"5.	c #BBBBBB",
"6.	c #FAFAFC",
"7.	c #FDFAFF",
"8.	c #FDFCFA",
"9.	c #FDFBFC",
"0.	c #FDF9FF",
"a.	c #FCF8FF",
"b.	c #FEFDF9",
"c.	c #F8F8F0",
"d.	c #FFFEFC",
"e.	c #FAF7FE",
". + @ @ @ @ @ @ @ @ # # $ % & * = - ; > , ' ) ",
"! ~ { { { { { { { { ] ^ { / { { { ] { ( { { _ ",
"@ { _ _ _ _ _ _ _ _ _ : _ < _ < _ [ < _ _ } _ ",
"@ { | 1 1 1 2 1 1 1 3 4 5 1 1 1 _ 1 1 1 [ 6 _ ",
"& 7 8 1 9 1 _ 1 0 1 _ _ a 1 b 1 c 1 c 1 _ d _ ",
"& e | 1 f 1 _ 1 g 1 _ 1 h 1 i 1 j 1 c 1 _ d _ ",
"& e f 1 k 1 _ 1 l 1 _ 1 m 1 n 1 c 1 _ 1 _ d _ ",
"& e o 1 p 1 q 1 r 1 s t u 1 v 1 0 1 _ 1 _ d _ ",
"& w x 1 y 1 z 1 A 1 B 1 C 1 D 1 E 1 F 1 _ d _ ",
"& G H 1 : 1 _ 1 I 1 _ 1 J 1 K 1 L 1 F 1 _ d _ ",
"& G g 1 : 1 _ 1 M 1 _ _ N 1 O 1 P 1 F 1 _ d _ ",
"& Q 0 1 R 1 _ 1 S 1 _ _ T 1 U 1 V 1 W 1 _ d _ ",
"+ X Y 1 1 1 Z 1 1 1 `  ...1 1 1 _ 1 1 1 [ d +.",
"@.{ #.$.%.&.a *.=.-.F  .Y ;.>.,.'.).!.+._ ~._ ",
", { {.6 ].^.{.{.^./.(._.:.<.[.}.|.1.2.3.4.5._ ",
"# 6.7.7.7.3 8.9.7.0.a.7.b.c.d.c | e._ _ _ _ [ "};
